<svg aria-hidden="true" style="position: absolute; width: 0; height: 0; overflow: hidden;" version="1.1" xmlns="http://www.w3.org/2000/svg" xmlns:xlink="http://www.w3.org/1999/xlink">
<defs>
<symbol id="icon-back" viewBox="0 0 19 32">
<path d="M17.169 27.563l-2.263 2.261-12.329-12.324c-0.199-0.198-0.356-0.432-0.464-0.691s-0.163-0.536-0.163-0.816c0-0.28 0.055-0.558 0.163-0.816s0.265-0.493 0.464-0.691l12.329-12.331 2.261 2.261-11.571 11.573 11.573 11.573z"></path>
</symbol>
<symbol id="icon-burger" viewBox="0 0 35 32">
<path d="M0.8 2.2c0-0.371 0.147-0.727 0.41-0.99s0.619-0.41 0.99-0.41h30.8c0.371 0 0.727 0.147 0.99 0.41s0.41 0.619 0.41 0.99c0 0.371-0.148 0.727-0.41 0.99s-0.619 0.41-0.99 0.41h-30.8c-0.371 0-0.727-0.147-0.99-0.41s-0.41-0.619-0.41-0.99zM0.8 16.2c0-0.371 0.147-0.727 0.41-0.99s0.619-0.41 0.99-0.41h30.8c0.371 0 0.727 0.148 0.99 0.41s0.41 0.619 0.41 0.99c0 0.371-0.148 0.727-0.41 0.99s-0.619 0.41-0.99 0.41h-30.8c-0.371 0-0.727-0.148-0.99-0.41s-0.41-0.619-0.41-0.99zM2.2 28.8c-0.371 0-0.727 0.148-0.99 0.41s-0.41 0.619-0.41 0.99c0 0.371 0.147 0.727 0.41 0.99s0.619 0.41 0.99 0.41h30.8c0.371 0 0.727-0.148 0.99-0.41s0.41-0.619 0.41-0.99c0-0.371-0.148-0.727-0.41-0.99s-0.619-0.41-0.99-0.41h-30.8z"></path>
</symbol>
<symbol id="icon-close" viewBox="0 0 32 32">
<path d="M13.801 16l-12.902-12.899c-0.145-0.145-0.259-0.316-0.338-0.505s-0.119-0.392-0.119-0.596c0-0.205 0.040-0.407 0.119-0.596s0.193-0.361 0.338-0.505c0.145-0.145 0.316-0.259 0.505-0.338s0.391-0.119 0.596-0.119c0.205 0 0.407 0.040 0.596 0.119s0.361 0.193 0.505 0.338l12.899 12.902 12.899-12.902c0.292-0.292 0.688-0.456 1.101-0.456s0.809 0.164 1.101 0.456 0.456 0.688 0.456 1.101c0 0.413-0.164 0.809-0.456 1.101l-12.902 12.899 12.902 12.899c0.292 0.292 0.456 0.688 0.456 1.101s-0.164 0.809-0.456 1.101c-0.292 0.292-0.688 0.456-1.101 0.456s-0.809-0.164-1.101-0.456l-12.899-12.902-12.899 12.902c-0.292 0.292-0.688 0.456-1.101 0.456s-0.809-0.164-1.101-0.456c-0.292-0.292-0.456-0.688-0.456-1.101s0.164-0.809 0.456-1.101l12.902-12.899z"></path>
</symbol>
<symbol id="icon-location" viewBox="0 0 22 32">
<path fill="#fafafa" style="fill: var(--color1, #fafafa)" d="M11.2 15.2c-1.061 0-2.078-0.421-2.828-1.172s-1.172-1.768-1.172-2.828c0-1.061 0.421-2.078 1.172-2.828s1.768-1.172 2.828-1.172c1.061 0 2.078 0.421 2.828 1.172s1.172 1.768 1.172 2.828c0 0.525-0.103 1.045-0.304 1.531s-0.496 0.926-0.867 1.298c-0.371 0.371-0.812 0.666-1.298 0.867s-1.005 0.304-1.531 0.304zM11.2 0c-2.97 0-5.819 1.18-7.92 3.28s-3.28 4.949-3.28 7.92c0 8.4 11.2 20.8 11.2 20.8s11.2-12.4 11.2-20.8c0-2.97-1.18-5.819-3.28-7.92s-4.949-3.28-7.92-3.28z"></path>
</symbol>
<symbol id="icon-pinterest" viewBox="0 0 32 32">
<path fill="#fafafa" style="fill: var(--color1, #fafafa)" d="M11.264 31.264c1.536 0.464 3.088 0.736 4.736 0.736 4.244 0 8.313-1.686 11.314-4.686s4.686-7.070 4.686-11.314c0-2.101-0.414-4.182-1.218-6.123s-1.983-3.705-3.468-5.191-3.25-2.664-5.191-3.468c-1.941-0.804-4.022-1.218-6.123-1.218s-4.182 0.414-6.123 1.218-3.705 1.983-5.191 3.468c-3.001 3.001-4.686 7.070-4.686 11.314 0 6.8 4.272 12.64 10.304 14.944-0.144-1.248-0.288-3.312 0-4.736l1.84-7.904c0 0-0.464-0.928-0.464-2.4 0-2.208 1.376-3.856 2.944-3.856 1.376 0 2.016 1.008 2.016 2.304 0 1.376-0.912 3.344-1.376 5.232-0.272 1.568 0.832 2.944 2.432 2.944 2.848 0 5.056-3.040 5.056-7.328 0-3.84-2.752-6.464-6.704-6.464-4.512 0-7.168 3.36-7.168 6.896 0 1.376 0.448 2.768 1.184 3.68 0.144 0.096 0.144 0.224 0.096 0.464l-0.464 1.744c0 0.272-0.176 0.368-0.448 0.176-2.048-0.896-3.232-3.808-3.232-6.16 0-5.056 3.584-9.648 10.496-9.648 5.504 0 9.792 3.952 9.792 9.2 0 5.504-3.408 9.92-8.288 9.92-1.552 0-3.072-0.832-3.616-1.808l-1.072 3.792c-0.368 1.376-1.376 3.216-2.064 4.32v-0.048z"></path>
</symbol>
<symbol id="icon-instagram" viewBox="0 0 32 32">
<path fill="#fafafa" style="fill: var(--color1, #fafafa)" d="M9.28 0h13.44c5.12 0 9.28 4.16 9.28 9.28v13.44c0 2.461-0.978 4.822-2.718 6.562s-4.101 2.718-6.562 2.718h-13.44c-5.12 0-9.28-4.16-9.28-9.28v-13.44c0-2.461 0.978-4.822 2.718-6.562s4.101-2.718 6.562-2.718zM8.96 3.2c-1.528 0-2.993 0.607-4.073 1.687s-1.687 2.545-1.687 4.073v14.080c0 3.184 2.576 5.76 5.76 5.76h14.080c1.528 0 2.993-0.607 4.073-1.687s1.687-2.545 1.687-4.073v-14.080c0-3.184-2.576-5.76-5.76-5.76h-14.080zM24.4 5.6c0.53 0 1.039 0.211 1.414 0.586s0.586 0.884 0.586 1.414c0 0.53-0.211 1.039-0.586 1.414s-0.884 0.586-1.414 0.586c-0.53 0-1.039-0.211-1.414-0.586s-0.586-0.884-0.586-1.414c0-0.53 0.211-1.039 0.586-1.414s0.884-0.586 1.414-0.586zM16 8c2.122 0 4.157 0.843 5.657 2.343s2.343 3.535 2.343 5.657c0 2.122-0.843 4.157-2.343 5.657s-3.535 2.343-5.657 2.343c-2.122 0-4.157-0.843-5.657-2.343s-2.343-3.535-2.343-5.657c0-2.122 0.843-4.157 2.343-5.657s3.535-2.343 5.657-2.343zM16 11.2c-1.273 0-2.494 0.506-3.394 1.406s-1.406 2.121-1.406 3.394c0 1.273 0.506 2.494 1.406 3.394s2.121 1.406 3.394 1.406c1.273 0 2.494-0.506 3.394-1.406s1.406-2.121 1.406-3.394c0-1.273-0.506-2.494-1.406-3.394s-2.121-1.406-3.394-1.406z"></path>
</symbol>
<symbol id="icon-email" viewBox="0 0 40 32">
<path fill="#fafafa" style="fill: var(--color1, #fafafa)" d="M40 4c0-2.2-1.8-4-4-4h-32c-2.2 0-4 1.8-4 4v24c0 2.2 1.8 4 4 4h32c2.2 0 4-1.8 4-4v-24zM36 4l-16 10-16-10h32zM36 28h-32v-20l16 10 16-10v20z"></path>
</symbol>
<symbol id="icon-arrow-down" viewBox="0 0 56 32">
<path fill="#b87000" style="fill: var(--color2, #b87000)" d="M49.679 1.808l4.24 4.244-23.108 23.116c-0.37 0.373-0.811 0.668-1.296 0.87s-1.005 0.306-1.53 0.306c-0.525 0-1.045-0.104-1.53-0.306s-0.925-0.498-1.296-0.87l-23.12-23.116 4.24-4.24 21.7 21.696 21.7-21.7z"></path>
</symbol>
<symbol id="icon-arrow-up" viewBox="0 0 56 32">
<path fill="#b87000" style="fill: var(--color2, #b87000)" d="M6.321 30.192l-4.24-4.244 23.108-23.116c0.37-0.373 0.811-0.668 1.296-0.87s1.005-0.306 1.53-0.306c0.525 0 1.045 0.104 1.53 0.306s0.925 0.498 1.296 0.87l23.12 23.116-4.24 4.24-21.7-21.696-21.7 21.7z"></path>
</symbol>
<symbol id="icon-arrow-next" viewBox="0 0 32 32">
<path fill="none" stroke="#b87000" style="stroke: var(--color2, #b87000)" stroke-linejoin="miter" stroke-linecap="butt" stroke-miterlimit="4" stroke-width="1.1429" d="M4.571 0.571h22.857c1.061 0 2.078 0.422 2.828 1.172s1.172 1.767 1.172 2.828v22.857c0 1.061-0.422 2.078-1.172 2.828s-1.767 1.172-2.828 1.172h-22.857c-1.061 0-2.078-0.422-2.828-1.172s-1.172-1.767-1.172-2.828v-22.857c0-1.061 0.422-2.078 1.172-2.828s1.767-1.172 2.828-1.172z"></path>
<path fill="#b87000" style="fill: var(--color2, #b87000)" d="M26.095 17.152c0.205-0.213 0.319-0.497 0.319-0.793s-0.114-0.58-0.319-0.793l-5.843-6.070c-0.714-0.742-1.967-0.237-1.967 0.792v3.501c0 0.076-0.030 0.148-0.084 0.202s-0.126 0.084-0.202 0.084h-11.142c-0.303 0-0.594 0.12-0.808 0.335s-0.335 0.505-0.335 0.808v2.286c0 0.303 0.12 0.594 0.335 0.808s0.505 0.335 0.808 0.335h11.143c0.076 0 0.148 0.030 0.202 0.084s0.084 0.126 0.084 0.202v3.501c0 1.029 1.253 1.534 1.966 0.792l5.843-6.073z"></path>
</symbol>
<symbol id="icon-arrow-prev" viewBox="0 0 32 32">
<path fill="none" stroke="#b87000" style="stroke: var(--color2, #b87000)" stroke-linejoin="miter" stroke-linecap="butt" stroke-miterlimit="4" stroke-width="1.1429" d="M27.429 31.429h-22.857c-1.061 0-2.078-0.422-2.828-1.172s-1.172-1.767-1.172-2.828v-22.857c0-1.061 0.422-2.078 1.172-2.828s1.767-1.172 2.828-1.172h22.857c1.061 0 2.078 0.422 2.828 1.172s1.172 1.767 1.172 2.828v22.857c0 1.061-0.422 2.078-1.172 2.828s-1.767 1.172-2.828 1.172z"></path>
<path fill="#b87000" style="fill: var(--color2, #b87000)" d="M5.905 14.848c-0.205 0.213-0.319 0.497-0.319 0.793s0.114 0.58 0.319 0.793l5.843 6.070c0.714 0.742 1.967 0.237 1.967-0.792v-3.501c0-0.076 0.030-0.148 0.084-0.202s0.126-0.084 0.202-0.084h11.142c0.303 0 0.594-0.12 0.808-0.335s0.335-0.505 0.335-0.808v-2.286c0-0.303-0.12-0.594-0.335-0.808s-0.505-0.335-0.808-0.335h-11.143c-0.076 0-0.148-0.030-0.202-0.084s-0.084-0.126-0.084-0.202v-3.501c0-1.029-1.253-1.534-1.966-0.792l-5.843 6.073z"></path>
</symbol>
<symbol id="icon-ornament" viewBox="0 0 94 32">
<path fill="#b87000" style="fill: var(--color2, #b87000)" d="M47.048 0c1.751 0.568 2.88 2.441 3.717 3.987 1.299 2.765 1.811 6.151 0.759 9.089-0.138 0.318-0.282 0.633-0.438 0.943-0.070 0.14-0.14 0.28-0.212 0.425 0.32-0.169 0.32-0.169 0.647-0.342 3.226-1.68 6.337-2.836 10.012-2.068 1.217 0.424 2.052 1.098 2.728 2.197 0.292 0.73 0.292 0.73 0.425 1.275 0.316-0.105 0.316-0.105 0.638-0.212 2.768-0.34 5.47-0.343 7.862 1.275 0.926 0.822 1.34 1.576 1.7 2.762 0.188-0.012 0.376-0.025 0.57-0.037 2.256-0.082 4.107 0.368 6.23 1.1 3.035 1.081 3.035 1.081 6.163 0.638 0.983-0.494 1.816-1.087 2.55-1.913-0.25-0.035-0.5-0.070-0.757-0.106-1.166-0.292-1.802-1.025-2.43-2.019-0.338-1.052-0.212-1.812 0.208-2.806 0.456-0.8 1.066-1.161 1.917-1.444 1.112-0.084 1.827 0.014 2.763 0.637 1.1 1.398 1.253 2.722 1.063 4.463-0.524 1.946-1.484 3.449-3.205 4.527-2.466 1.292-4.944 1.315-7.566 0.52-0.837-0.263-1.665-0.549-2.494-0.837-1.703-0.589-3.205-0.856-5.010-0.81-0.009 0.206-0.017 0.412-0.027 0.624-0.184 1.293-0.998 2.374-1.966 3.214-0.8 0.286-1.409 0.269-2.258 0.199-0.507-0.507-0.488-0.636-0.491-1.328 0.035-1.14 0.289-1.867 1.11-2.693 1.189-1.079 1.189-1.079 1.719-1.079-0.425-1.275-0.921-1.93-2.125-2.55-1.872-0.655-3.802-0.505-5.737-0.212 0.017 0.272 0.035 0.543 0.053 0.823-0.011 2.276-1.289 3.946-2.782 5.547-1.192 1.148-2.564 1.842-4.23 1.958-0.909-0.045-1.429-0.178-2.191-0.691-0.617-0.935-0.725-1.721-0.545-2.799 0.568-2.061 2.216-3.493 3.958-4.625 2.628-1.487 2.628-1.487 3.4-1.487-0.38-0.855-0.652-1.461-1.488-1.913-2.639-0.942-5.22-0.083-7.65 1.063-1.558 0.807-2.967 1.781-4.25 2.975 0.149 0.118 0.298 0.237 0.452 0.359 4.504 3.622 4.504 3.622 5.026 6.215 0.15 1.39-0.092 2.495-0.894 3.645-1.28 1.56-2.796 2.581-4.834 2.825-0.733 0.033-1.46 0.035-2.193 0.025-0.246 0.003-0.493 0.007-0.746 0.010-2.119-0.009-3.823-0.418-5.403-1.896-0.171-0.155-0.341-0.31-0.517-0.47-1.026-1.163-1.362-2.39-1.302-3.913 0.492-2.922 3.18-4.968 5.312-6.8-2.347-2.582-5.893-4.219-9.356-4.455-1.131-0.013-1.971 0.19-2.943 0.803-0.477 0.491-0.678 0.877-0.877 1.527 0.254 0.066 0.508 0.131 0.77 0.199 2.35 0.785 4.764 2.47 6.109 4.569 0.537 1.177 0.718 2.12 0.332 3.373-0.259 0.582-0.429 0.798-0.93 1.222-1.566 0.412-3.027 0.231-4.436-0.571-1.886-1.277-3.382-2.995-4.118-5.194-0.076-0.48-0.086-0.935-0.079-1.42 0.002-0.17 0.004-0.34 0.006-0.515 0.002-0.128 0.005-0.256 0.007-0.388-2.221-0.335-4.558-0.542-6.563 0.667-0.693 0.532-1.060 1.047-1.299 1.883 0.113 0.080 0.226 0.159 0.342 0.241 1.061 0.769 1.992 1.447 2.42 2.734 0.036 0.412 0.036 0.412 0.040 0.85 0.003 0.145 0.006 0.289 0.009 0.438-0.049 0.412-0.049 0.412-0.474 1.049-0.971 0.132-1.641 0.122-2.484-0.398-0.897-0.718-1.389-1.72-1.766-2.789 0-0.281 0-0.561 0-0.85-2.665-0.226-5.189 0.765-7.645 1.689-2.098 0.729-4.627 0.765-6.685-0.105-1.807-1.023-3.229-2.539-3.861-4.538-0.288-1.517-0.27-3.016 0.522-4.365 0.492-0.668 0.954-0.921 1.731-1.18 1.297-0.125 1.94 0.114 2.975 0.85 0.758 0.807 0.784 1.74 0.752 2.806-0.2 1.038-0.761 1.68-1.602 2.294-0.587 0.244-1.063 0.336-1.7 0.425 0.299 0.748 0.554 0.947 1.275 1.275 0.219 0.109 0.219 0.109 0.442 0.22 0.152 0.072 0.305 0.144 0.462 0.218 0.225 0.109 0.225 0.109 0.455 0.22 1.366 0.472 2.438 0.442 3.822 0.072 0.217-0.056 0.217-0.056 0.438-0.114 0.796-0.214 1.572-0.462 2.346-0.745 2.169-0.792 3.965-1.104 6.274-0.934 0.088-0.292 0.088-0.292 0.178-0.59 0.511-1.419 1.536-2.346 2.867-3.021 2.157-0.812 4.958-0.945 7.154-0.213 0.044-0.18 0.088-0.359 0.133-0.545 0.48-1.201 1.214-2.095 2.351-2.736 2.745-1.063 5.95-0.341 8.566 0.73 0.87 0.388 1.716 0.815 2.55 1.275-0.092-0.175-0.092-0.175-0.186-0.354-1.121-2.51-1.028-5.576-0.226-8.172 0.69-1.771 2.427-5.726 4.662-5.705zM46.835 2.332c-1.997 2.061-3.076 4.394-3.223 7.288 0.087 2.698 1.362 4.654 3.223 6.524 1.806-1.278 2.877-3.154 3.32-5.307 0.317-2.561-0.406-5.226-1.966-7.284-0.439-0.528-0.775-0.835-1.355-1.222zM2.888 14.975c-0.366 0.77-0.295 1.383-0.252 2.231 1.139-0.062 1.139-0.062 2.005-0.757 0.11-0.171 0.219-0.342 0.332-0.518-0.231-0.691-0.231-0.691-0.638-1.275-0.641-0.084-0.941-0.101-1.448 0.319zM89.149 15.029c-0.277 0.455-0.277 0.455-0.212 0.916 0.226 0.501 0.37 0.732 0.823 1.049 0.767 0.155 0.767 0.155 1.487 0.212 0.061-1.038 0.069-1.746-0.638-2.55-0.697-0.157-0.936-0.118-1.461 0.372zM30.685 18.057c0.074 2.033 1.151 3.42 2.594 4.794 0.753 0.605 1.498 0.903 2.466 1.010 0.509-0.025 0.509-0.025 0.89-0.491 0.027-1.149-0.525-1.764-1.272-2.561-1.137-1.099-3.021-2.752-4.678-2.752zM58.828 20.514c-0.109 0.098-0.218 0.195-0.33 0.295-0.626 0.588-1.024 1.090-1.251 1.923 0.063 0.581 0.063 0.581 0.212 1.063 1.841-0.082 2.797-0.612 4.064-1.966 0.864-1.007 1.614-1.996 1.727-3.347-0.026-0.21-0.026-0.21-0.053-0.425-1.677 0-3.178 1.378-4.37 2.457zM46.835 20.607c-1.33 1.789-2.652 3.621-2.55 5.95 0.354 1.25 0.877 1.831 1.913 2.55 0.409 0.244 0.409 0.244 0.85 0.212 1.086-0.393 1.696-0.96 2.337-1.913 0.478-1.525-0.027-3.031-0.722-4.418-0.529-0.91-1.061-1.656-1.828-2.382zM43.648 21.457c-1.368 1.262-2.566 2.382-2.869 4.277 0.203 1.167 0.961 1.951 1.806 2.736 0.21-0.105 0.21-0.105 0.425-0.212-0.070-0.14-0.14-0.28-0.212-0.425-0.169-2.023-0.079-3.62 0.851-5.47 0.105-0.238 0.105-0.238 0.212-0.48-0.070-0.14-0.14-0.281-0.212-0.425zM50.023 21.457c0.057 0.171 0.114 0.342 0.173 0.518 0.083 0.25 0.166 0.5 0.252 0.757 0.056 0.134 0.112 0.268 0.17 0.406 0.647 1.641 0.775 3.631 0.255 5.332 0.872-0.323 1.428-0.926 1.913-1.7 0.344-0.994 0.221-1.606-0.199-2.537-0.6-1.104-1.389-1.972-2.351-2.776-0.070 0-0.14 0-0.213 0z"></path>
</symbol>
<symbol id="icon-step" viewBox="0 0 32 32">
<path fill="#d9d9d9" style="fill: var(--color1, #d9d9d9)" d="M32 16c0 8.837-7.163 16-16 16s-16-7.163-16-16c0-8.837 7.163-16 16-16s16 7.163 16 16z"></path>
</symbol>
<symbol id="icon-step-active" viewBox="0 0 32 32">
<path fill="currentColor" d="M32 16c0 8.837-7.163 16-16 16s-16-7.163-16-16c0-8.837 7.163-16 16-16s16 7.163 16 16z"></path>
</symbol>
<symbol id="icon-star" viewBox="0 0 29 32">
<path fill="currentColor" d="M28.050 12.037l-8.656-1.258-3.869-7.844c-0.106-0.215-0.28-0.389-0.494-0.494-0.539-0.266-1.193-0.044-1.463 0.494l-3.869 7.844-8.656 1.258c-0.239 0.034-0.457 0.147-0.624 0.317-0.202 0.208-0.313 0.487-0.309 0.776s0.122 0.566 0.33 0.768l6.263 6.106-1.48 8.622c-0.035 0.201-0.013 0.407 0.064 0.595s0.204 0.352 0.369 0.472c0.165 0.12 0.36 0.191 0.563 0.205s0.406-0.028 0.586-0.123l7.742-4.071 7.742 4.071c0.211 0.112 0.457 0.15 0.692 0.109 0.593-0.102 0.992-0.665 0.89-1.258l-1.48-8.622 6.262-6.106c0.17-0.167 0.283-0.385 0.317-0.624 0.092-0.597-0.324-1.149-0.92-1.238z"></path>
</symbol>
</defs>
</svg>
